<svg xmlns="http://www.w3.org/2000/svg" width="472" height="439" viewBox="279.4053955078125 158.69140625 640.1909790039062 595.431884765625" style="">
  <rect x="-1.127" y="-0.875" width="1183.7" height="889.617" style="stroke: rgb(0, 0, 0); fill: rgb(4, 98, 100);"/>
  <g style="">
    <path d="M 490.67 610.34 C490.30,609.97 490.00,597.37 490.00,582.35 L 490.00 555.03 L 462.25 554.77 L 434.50 554.50 L 434.25 443.77 L 433.99 333.03 L 461.75 332.77 L 489.50 332.50 L 489.77 304.75 L 490.03 277.00 L 618.53 277.00 L 747.02 277.00 L 746.76 315.75 L 746.50 354.50 L 601.24 354.75 L 455.99 355.01 L 456.24 443.75 L 456.50 532.50 L 473.00 532.50 L 489.50 532.50 L 489.76 455.25 L 490.01 378.00 L 501.01 378.00 L 512.00 378.00 L 512.00 483.00 L 512.00 588.00 L 619.00 588.00 L 726.00 588.00 L 726.00 507.50 L 726.00 427.00 L 649.48 427.00 L 572.95 427.00 L 573.23 443.75 L 573.50 460.50 L 633.26 460.76 L 693.02 461.02 L 692.76 507.76 L 692.50 554.50 L 614.00 554.50 L 535.50 554.50 L 535.22 543.76 L 534.93 533.01 L 602.72 532.76 L 670.50 532.50 L 670.77 507.76 L 671.03 483.02 L 611.27 482.76 L 551.50 482.50 L 551.24 443.75 L 550.98 405.00 L 649.99 405.00 L 749.01 405.00 L 748.75 507.75 L 748.50 610.50 L 619.92 610.75 C549.20,610.89 491.04,610.71 490.67,610.34 ZM 724.77 315.75 L 725.05 299.00 L 618.52 299.00 L 512.00 299.00 L 512.00 316.00 L 512.00 333.01 L 618.25 332.75 L 724.50 332.50 L 724.77 315.75 Z" style="fill: rgb(171, 240, 12);"/>
  </g>
</svg>